<svg width="21" height="23" viewBox="0 0 21 23" fill="none" xmlns="http://www.w3.org/2000/svg">
<path fill-rule="evenodd" clip-rule="evenodd" d="M10.5002 0.041626C8.56637 0.041626 6.71171 0.809853 5.34426 2.17731C3.9768 3.54476 3.20858 5.39942 3.20858 7.33329C3.20858 10.8256 2.46163 12.9944 1.77327 14.2564C1.42765 14.89 1.0911 15.3057 0.857324 15.5524C0.740162 15.6761 0.648096 15.7581 0.592662 15.8043C0.564932 15.8274 0.546334 15.8416 0.538314 15.8476L0.535337 15.8498C0.161915 16.1063 -0.00333387 16.5755 0.128273 17.0101C0.261292 17.4495 0.666215 17.75 1.12524 17.75H19.8752C20.3343 17.75 20.7392 17.4495 20.8722 17.0101C21.0038 16.5755 20.8386 16.1063 20.4651 15.8498L20.4622 15.8476C20.4542 15.8416 20.4356 15.8274 20.4078 15.8043C20.3524 15.7581 20.2603 15.6761 20.1432 15.5524C19.9094 15.3057 19.5728 14.89 19.2272 14.2564C18.5389 12.9944 17.7919 10.8256 17.7919 7.33329C17.7919 5.39942 17.0237 3.54476 15.6562 2.17731C14.2888 0.809853 12.4341 0.041626 10.5002 0.041626ZM17.3983 15.254C17.4775 15.3993 17.5571 15.5368 17.6364 15.6666H3.36412C3.44338 15.5368 3.52295 15.3993 3.60222 15.254C4.47636 13.6514 5.29191 11.1326 5.29191 7.33329C5.29191 5.95196 5.84064 4.6272 6.8174 3.65044C7.79415 2.67369 9.11891 2.12496 10.5002 2.12496C11.8816 2.12496 13.2063 2.67369 14.1831 3.65044C15.1598 4.6272 15.7086 5.95196 15.7086 7.33329C15.7086 11.1326 16.5241 13.6514 17.3983 15.254Z" fill="#6D6E71"/>
<path d="M9.59922 20.3523C9.31056 19.8546 8.67313 19.6852 8.1755 19.9739C7.67787 20.2626 7.50847 20.9 7.79714 21.3976C8.07184 21.8712 8.46613 22.2643 8.94054 22.5375C9.41494 22.8108 9.9528 22.9546 10.5003 22.9546C11.0477 22.9546 11.5856 22.8108 12.06 22.5375C12.5344 22.2643 12.9287 21.8712 13.2034 21.3976C13.4921 20.9 13.3227 20.2626 12.825 19.9739C12.3274 19.6852 11.69 19.8546 11.4013 20.3523C11.3097 20.5101 11.1783 20.6412 11.0202 20.7322C10.862 20.8233 10.6828 20.8713 10.5003 20.8713C10.3178 20.8713 10.1385 20.8233 9.98035 20.7322C9.82222 20.6412 9.69079 20.5101 9.59922 20.3523Z" fill="#6D6E71"/>
</svg>
