<svg width="23" height="21" viewBox="0 0 23 21" fill="none" xmlns="http://www.w3.org/2000/svg">
<path fill-rule="evenodd" clip-rule="evenodd" d="M5.80735 0.385376C5.50719 0.385474 5.21171 0.459688 4.94713 0.601428C4.68254 0.743168 4.45706 0.948048 4.29068 1.19788L0.552144 6.80413C0.324019 7.14788 0.296936 7.58746 0.481311 7.95621C2.52724 12.0479 5.37044 15.6894 8.84381 18.6666L10.6667 20.2302C10.8989 20.4292 11.1947 20.5386 11.5006 20.5386C11.8064 20.5386 12.1022 20.4292 12.3344 20.2302L14.1573 18.6677C17.6312 15.6903 20.4748 12.0484 22.5209 7.95621C22.7053 7.58746 22.6771 7.14788 22.449 6.80413L18.7084 1.19788C18.542 0.948388 18.3166 0.743803 18.0522 0.602256C17.7879 0.460709 17.4927 0.386573 17.1928 0.386418L5.80735 0.385376ZM5.59068 2.0635C5.6145 2.02789 5.64674 1.99871 5.68453 1.97854C5.72233 1.95837 5.76451 1.94784 5.80735 1.94788H8.24485L6.25006 6.73538C6.20437 6.84491 6.16948 6.95864 6.14589 7.07496C5.41229 7.02019 4.67956 6.95421 3.94798 6.87704L2.48444 6.72392L5.59068 2.0635ZM2.41673 8.28746C4.2859 11.7167 6.7532 14.7841 9.70214 17.3448L6.44693 8.6635C5.55881 8.60249 4.67185 8.52539 3.78652 8.43225L2.41673 8.28746ZM8.15214 8.76038L11.5001 17.6916L14.849 8.76038C12.6175 8.86182 10.3826 8.86182 8.1511 8.76038H8.15214ZM16.5553 8.6635L13.3001 17.3448C16.249 14.7841 18.7163 11.7167 20.5855 8.28746L19.2157 8.43225C18.3303 8.52496 17.4438 8.60204 16.5553 8.6635ZM20.5167 6.72392L19.0521 6.87808C18.3206 6.95526 17.5878 7.02124 16.8542 7.076C16.8311 6.95936 16.7965 6.84528 16.7511 6.73538L14.7553 1.94788H17.1928C17.2356 1.94784 17.2778 1.95837 17.3156 1.97854C17.3534 1.99871 17.3856 2.02789 17.4094 2.0635L20.5167 6.72392ZM15.2428 7.17704C12.7501 7.30621 10.2532 7.30621 7.75943 7.17704L9.93756 1.94788H13.0626L15.2417 7.17704H15.2428Z" fill="#297BCA"/>
</svg>
