<svg width="19" height="19" viewBox="0 0 19 19" fill="none" xmlns="http://www.w3.org/2000/svg">
<g clip-path="url(#clip0_1_7114)">
<path d="M8.32911 2.07732C8.4775 1.9143 8.65829 1.78407 8.85991 1.69496C9.06154 1.60584 9.27954 1.55981 9.49998 1.55981C9.72042 1.55981 9.93843 1.60584 10.1401 1.69496C10.3417 1.78407 10.5225 1.9143 10.6709 2.07732L11.4784 2.96398C11.6351 3.1361 11.828 3.27153 12.0431 3.36061C12.2582 3.44969 12.4903 3.49024 12.7229 3.47936L13.9206 3.42394C14.1408 3.41357 14.3606 3.44926 14.5661 3.52872C14.7717 3.60818 14.9583 3.72966 15.1142 3.8854C15.2701 4.04114 15.3918 4.2277 15.4714 4.43315C15.5511 4.63859 15.587 4.85841 15.5768 5.07852L15.5206 6.27711C15.5097 6.50968 15.5503 6.74179 15.6394 6.9569C15.7284 7.17201 15.8639 7.36482 16.036 7.52161L16.9226 8.32911C17.0857 8.4775 17.2159 8.65829 17.305 8.85991C17.3941 9.06154 17.4401 9.27954 17.4401 9.49998C17.4401 9.72042 17.3941 9.93843 17.305 10.1401C17.2159 10.3417 17.0857 10.5225 16.9226 10.6709L16.036 11.4784C15.8639 11.6351 15.7284 11.828 15.6394 12.0431C15.5503 12.2582 15.5097 12.4903 15.5206 12.7229L15.576 13.9206C15.5864 14.1408 15.5507 14.3606 15.4712 14.5661C15.3918 14.7717 15.2703 14.9583 15.1146 15.1142C14.9588 15.2701 14.7723 15.3918 14.5668 15.4714C14.3614 15.5511 14.1416 15.587 13.9214 15.5768L12.7229 15.5206C12.4903 15.5097 12.2582 15.5503 12.0431 15.6394C11.828 15.7284 11.6351 15.8639 11.4784 16.036L10.6709 16.9226C10.5225 17.0857 10.3417 17.2159 10.1401 17.305C9.93843 17.3941 9.72042 17.4401 9.49998 17.4401C9.27954 17.4401 9.06154 17.3941 8.85991 17.305C8.65829 17.2159 8.4775 17.0857 8.32911 16.9226L7.52161 16.036C7.36482 15.8639 7.17201 15.7284 6.9569 15.6394C6.74179 15.5503 6.50968 15.5097 6.27711 15.5206L5.07932 15.576C4.85921 15.5864 4.63936 15.5507 4.43384 15.4712C4.22831 15.3918 4.04164 15.2703 3.88575 15.1146C3.72986 14.9588 3.6082 14.7723 3.52854 14.5668C3.44889 14.3614 3.41299 14.1416 3.42315 13.9214L3.47936 12.7229C3.49024 12.4903 3.44969 12.2582 3.36061 12.0431C3.27153 11.828 3.1361 11.6351 2.96398 11.4784L2.07732 10.6709C1.9143 10.5225 1.78407 10.3417 1.69496 10.1401C1.60584 9.93843 1.55981 9.72042 1.55981 9.49998C1.55981 9.27954 1.60584 9.06154 1.69496 8.85991C1.78407 8.65829 1.9143 8.4775 2.07732 8.32911L2.96398 7.52161C3.1361 7.36482 3.27153 7.17201 3.36061 6.9569C3.44969 6.74179 3.49024 6.50968 3.47936 6.27711L3.42394 5.07932C3.41357 4.85921 3.44926 4.63936 3.52872 4.43384C3.60818 4.22831 3.72966 4.04164 3.8854 3.88575C4.04114 3.72986 4.2277 3.6082 4.43315 3.52854C4.63859 3.44889 4.85841 3.41299 5.07852 3.42315L6.27711 3.47936C6.50968 3.49024 6.74179 3.44969 6.9569 3.36061C7.17201 3.27153 7.36482 3.1361 7.52161 2.96398L8.32911 2.07732Z" fill="#1E9915" stroke="#1E9915" stroke-width="1.5"/>
<path d="M6.33447 9.89701L8.44558 11.8762L12.6678 7.91785" fill="#1E9915"/>
<path d="M6.33447 9.89701L8.44558 11.8762L12.6678 7.91785" stroke="white" stroke-width="1.5" stroke-linecap="round" stroke-linejoin="round"/>
</g>
<defs>
<clipPath id="clip0_1_7114">
<rect width="19" height="19" fill="white"/>
</clipPath>
</defs>
</svg>
