<svg width="14" height="14" viewBox="0 0 14 14" fill="none" xmlns="http://www.w3.org/2000/svg">
<path fill-rule="evenodd" clip-rule="evenodd" d="M11.4238 0.281616C11.1096 0.281616 10.7985 0.343507 10.5082 0.463755C10.2179 0.584002 9.95409 0.760252 9.7319 0.982441L1.2944 9.41994C1.21749 9.49685 1.16198 9.5925 1.13337 9.69743L0.195865 13.1349C0.136852 13.3513 0.198307 13.5827 0.356901 13.7413C0.515495 13.8999 0.746908 13.9614 0.963291 13.9024L4.40079 12.9649C4.50573 12.9362 4.60137 12.8807 4.67828 12.8038L13.1158 4.36632C13.338 4.14414 13.5142 3.88036 13.6345 3.59006C13.7547 3.29975 13.8166 2.9886 13.8166 2.67438C13.8166 2.36016 13.7547 2.04902 13.6345 1.75871C13.5142 1.46841 13.338 1.20463 13.1158 0.982441C12.8936 0.760252 12.6298 0.584002 12.3395 0.463755C12.0492 0.343507 11.7381 0.281616 11.4238 0.281616ZM10.9865 1.6186C11.1252 1.56117 11.2738 1.53162 11.4238 1.53162C11.5739 1.53162 11.7225 1.56117 11.8612 1.6186C11.9998 1.67603 12.1258 1.76021 12.2319 1.86632C12.338 1.97244 12.4222 2.09842 12.4796 2.23707C12.5371 2.37571 12.5666 2.52431 12.5666 2.67438C12.5666 2.82446 12.5371 2.97306 12.4796 3.1117C12.4222 3.25035 12.338 3.37633 12.2319 3.48244L3.91176 11.8026L1.6896 12.4086L2.29565 10.1865L10.6158 1.86632C10.7219 1.76021 10.8479 1.67603 10.9865 1.6186Z" fill="#6D6E71"/>
</svg>
