<svg width="31" height="31" viewBox="0 0 31 31" fill="none" xmlns="http://www.w3.org/2000/svg">
<g clip-path="url(#clip0_2514_64)">
<path d="M30.9338 12.6196H0.933838V6.58514C0.933838 6.29949 1.16546 6.06787 1.4511 6.06787H30.4166C30.7022 6.06787 30.9338 6.29949 30.9338 6.58514L30.9338 12.6196Z" fill="#FAB446"/>
<path d="M30.4165 25.7231H1.4511C1.16546 25.7231 0.933838 25.4915 0.933838 25.2058V19.1714H30.9338V25.2058C30.9338 25.4915 30.7022 25.7231 30.4165 25.7231Z" fill="#73AF00"/>
<path d="M30.9338 12.6196H0.933838V19.171H30.9338V12.6196Z" fill="#F5F5F5"/>
<path d="M15.9337 18.6758C14.4007 18.6758 13.1536 17.4287 13.1536 15.8956C13.1536 14.3626 14.4007 13.1155 15.9337 13.1155C17.4668 13.1155 18.7139 14.3626 18.7139 15.8956C18.7139 17.4287 17.4668 18.6758 15.9337 18.6758ZM15.9337 13.6327C14.6858 13.6327 13.6708 14.6477 13.6708 15.8956C13.6708 17.1436 14.6858 18.1586 15.9337 18.1586C17.1816 18.1586 18.1967 17.1436 18.1967 15.8956C18.1967 14.6477 17.1816 13.6327 15.9337 13.6327Z" fill="#41479B"/>
<path d="M15.9337 16.2109C16.1078 16.2109 16.2489 16.0698 16.2489 15.8957C16.2489 15.7217 16.1078 15.5806 15.9337 15.5806C15.7596 15.5806 15.6185 15.7217 15.6185 15.8957C15.6185 16.0698 15.7596 16.2109 15.9337 16.2109Z" fill="#41479B"/>
<path d="M15.934 15.943L15.133 16.0239L13.4125 15.943V15.8484L15.133 15.7676L15.934 15.8484V15.943Z" fill="#41479B"/>
<path d="M15.934 15.943L16.7349 16.0239L18.4555 15.943V15.8484L16.7349 15.7676L15.934 15.8484V15.943Z" fill="#41479B"/>
<path d="M15.8865 15.8958L15.8057 15.0948L15.8865 13.3743H15.9811L16.062 15.0948L15.9811 15.8958H15.8865Z" fill="#41479B"/>
<path d="M15.8865 15.8958L15.8057 16.6967L15.8865 18.4173H15.9811L16.062 16.6967L15.9811 15.8958H15.8865Z" fill="#41479B"/>
<path d="M15.9004 15.9291L15.2769 15.42L14.1174 14.1462L14.1843 14.0793L15.4581 15.2388L15.9672 15.8624L15.9004 15.9291Z" fill="#41479B"/>
<path d="M15.9006 15.9291L16.4098 16.5527L17.6836 17.7121L17.7504 17.6453L16.591 16.3714L15.9674 15.8623L15.9006 15.9291Z" fill="#41479B"/>
<path d="M15.9006 15.8624L16.4098 15.2388L17.6836 14.0793L17.7504 14.1462L16.591 15.42L15.9674 15.9291L15.9006 15.8624Z" fill="#41479B"/>
<path d="M15.9004 15.8623L15.2769 16.3714L14.1174 17.6453L14.1843 17.7121L15.4581 16.5527L15.9672 15.9291L15.9004 15.8623Z" fill="#41479B"/>
<path d="M15.9518 15.9395L15.2427 16.3207L13.6223 16.9044L13.5861 16.817L15.1447 16.0839L15.9156 15.8521L15.9518 15.9395Z" fill="#41479B"/>
<path d="M15.9519 15.9393L16.7228 15.7074L18.2814 14.9743L18.2452 14.887L16.6247 15.4707L15.9156 15.8519L15.9519 15.9393Z" fill="#41479B"/>
<path d="M15.89 15.9139L15.5088 15.2048L14.925 13.5843L15.0124 13.5481L15.7455 15.1067L15.9774 15.8777L15.89 15.9139Z" fill="#41479B"/>
<path d="M15.89 15.9139L16.1219 16.6848L16.855 18.2435L16.9424 18.2073L16.3586 16.5868L15.9774 15.8777L15.89 15.9139Z" fill="#41479B"/>
<path d="M15.9156 15.9393L15.1447 15.7074L13.5861 14.9743L13.6223 14.887L15.2427 15.4707L15.9518 15.8519L15.9156 15.9393Z" fill="#41479B"/>
<path d="M15.9156 15.9395L16.6247 16.3207L18.2452 16.9044L18.2814 16.817L16.7228 16.0839L15.9519 15.8521L15.9156 15.9395Z" fill="#41479B"/>
<path d="M15.89 15.8777L16.1219 15.1067L16.855 13.5481L16.9424 13.5843L16.3586 15.2048L15.9774 15.9139L15.89 15.8777Z" fill="#41479B"/>
<path d="M15.89 15.8777L15.5088 16.5868L14.925 18.2073L15.0124 18.2435L15.7455 16.6848L15.9774 15.9139L15.89 15.8777Z" fill="#41479B"/>
<path d="M15.9338 16.3208C16.1686 16.3208 16.359 16.1304 16.359 15.8956C16.359 15.6608 16.1686 15.4705 15.9338 15.4705C15.699 15.4705 15.5087 15.6608 15.5087 15.8956C15.5087 16.1304 15.699 16.3208 15.9338 16.3208Z" fill="#F5F5F5"/>
<path d="M15.9339 16.1505C16.0747 16.1505 16.1888 16.0364 16.1888 15.8956C16.1888 15.7548 16.0747 15.6406 15.9339 15.6406C15.7931 15.6406 15.679 15.7548 15.679 15.8956C15.679 16.0364 15.7931 16.1505 15.9339 16.1505Z" fill="#41479B"/>
</g>
<defs>
<clipPath id="clip0_2514_64">
<rect width="30" height="30" fill="white" transform="translate(0.933472 0.895508)"/>
</clipPath>
</defs>
</svg>
