<svg width="22" height="24" viewBox="0 0 22 24" fill="none" xmlns="http://www.w3.org/2000/svg">
<path fill-rule="evenodd" clip-rule="evenodd" d="M4.1665 5.16675C3.50346 5.16675 2.86758 5.43014 2.39874 5.89898C1.9299 6.36782 1.6665 7.00371 1.6665 7.66675V21.0001C1.6665 21.3371 1.86954 21.641 2.18093 21.77C2.49233 21.899 2.85076 21.8277 3.08909 21.5893L6.17835 18.5001H15.8332C16.4962 18.5001 17.1321 18.2367 17.6009 17.7678C18.0698 17.299 18.3332 16.6631 18.3332 16.0001V7.66675C18.3332 7.00371 18.0698 6.36782 17.6009 5.89898C17.1321 5.43014 16.4962 5.16675 15.8332 5.16675H4.1665ZM3.57725 7.07749C3.73353 6.92121 3.94549 6.83341 4.1665 6.83341H15.8332C16.0542 6.83341 16.2661 6.92121 16.4224 7.07749C16.5787 7.23377 16.6665 7.44573 16.6665 7.66675V16.0001C16.6665 16.2211 16.5787 16.4331 16.4224 16.5893C16.2661 16.7456 16.0542 16.8334 15.8332 16.8334H5.83317C5.61216 16.8334 5.4002 16.9212 5.24392 17.0775L3.33317 18.9882V7.66675C3.33317 7.44573 3.42097 7.23377 3.57725 7.07749Z" fill="#C4C4C4"/>
<circle cx="17" cy="5.5" r="5" fill="#1E9915"/>
</svg>
