<svg width="16" height="15" viewBox="0 0 16 15" fill="none" xmlns="http://www.w3.org/2000/svg">
<path fill-rule="evenodd" clip-rule="evenodd" d="M3.78424 0.5C3.57573 0.500068 3.37046 0.551623 3.18666 0.650086C3.00286 0.74855 2.84622 0.890875 2.73065 1.06442L0.133573 4.95895C-0.0249 5.19775 -0.0437141 5.50312 0.0843668 5.75928C1.50562 8.60171 3.48073 11.1314 5.8936 13.1996L7.15993 14.2857C7.32125 14.424 7.52672 14.5 7.73919 14.5C7.95167 14.5 8.15713 14.424 8.31845 14.2857L9.58479 13.2003C11.998 11.132 13.9734 8.60204 15.3947 5.75928C15.5228 5.50312 15.5033 5.19775 15.3448 4.95895L12.7463 1.06442C12.6307 0.891111 12.4741 0.748991 12.2905 0.650662C12.1068 0.552332 11.9017 0.500831 11.6934 0.500724L3.78424 0.5ZM3.63373 1.66575C3.65027 1.64102 3.67267 1.62075 3.69892 1.60674C3.72518 1.59273 3.75448 1.58541 3.78424 1.58543H5.47751L4.09178 4.91119C4.06004 4.98729 4.0358 5.06629 4.01942 5.1471C3.5098 5.10905 3.00079 5.06322 2.49258 5.00961L1.47589 4.90324L3.63373 1.66575ZM1.42885 5.98939C2.72732 8.3716 4.4413 10.5024 6.48986 12.2813L4.22854 6.25062C3.61158 6.20823 2.99544 6.15468 2.38042 6.08997L1.42885 5.98939ZM5.41311 6.31791L7.73883 12.5222L10.0653 6.31791C8.51511 6.38839 6.96255 6.38839 5.41239 6.31791H5.41311ZM11.2506 6.25062L8.98925 12.2813C11.0378 10.5024 12.7518 8.3716 14.0503 5.98939L13.0987 6.08997C12.4836 6.15438 11.8678 6.20792 11.2506 6.25062ZM14.0025 4.90324L12.9851 5.01033C12.4769 5.06394 11.9679 5.10978 11.4582 5.14782C11.4422 5.06679 11.4182 4.98754 11.3866 4.91119L10.0001 1.58543H11.6934C11.7232 1.58541 11.7525 1.59273 11.7787 1.60674C11.805 1.62075 11.8274 1.64102 11.8439 1.66575L14.0025 4.90324ZM10.3388 5.21801C8.60717 5.30774 6.87266 5.30774 5.14031 5.21801L6.6534 1.58543H8.82426L10.3381 5.21801H10.3388Z" fill="#FFA800"/>
</svg>
