<svg width="28" height="20" viewBox="0 0 28 20" fill="none" xmlns="http://www.w3.org/2000/svg">
<path d="M26.9932 7.07605L20.1565 0.239234C19.8376 -0.0797445 19.3203 -0.0797445 19.0014 0.239234L15.6834 3.55715C15.3645 3.87613 15.3645 4.39334 15.6834 4.71232L16.3083 5.3372L14.5609 5.4903C14.3681 5.50721 14.1806 5.54685 13.9995 5.60728C13.8189 5.54701 13.6309 5.50716 13.439 5.4903L11.6915 5.3372L12.3164 4.71232C12.6353 4.39334 12.6353 3.87613 12.3164 3.55715L8.99844 0.239234C8.67952 -0.0797445 8.16226 -0.0797445 7.84328 0.239234L1.00657 7.07605C0.687589 7.39497 0.687589 7.91223 1.00657 8.23121L4.32449 11.5491C4.64331 11.868 5.16073 11.8681 5.47965 11.5491L6.21872 10.8101L6.37151 12.5571C6.42155 13.1302 6.67328 13.6698 7.08002 14.0766L11.9996 18.9955C13.35 20.3459 14.7759 20.2198 15.6989 19.297C16.1363 18.8596 20.9022 14.0943 20.9202 14.0762C21.3268 13.6695 21.5784 13.1301 21.6284 12.5571L21.7812 10.81L22.5203 11.5491C22.8391 11.8679 23.3565 11.868 23.6754 11.5491L26.9933 8.23116C27.3123 7.91223 27.3123 7.39497 26.9932 7.07605ZM4.90207 9.81638L2.73932 7.65363L8.42096 1.97203L10.5837 4.13474C3.72592 10.9925 5.47748 9.24092 4.90207 9.81638ZM19.0234 13.66C19.0233 13.6601 19.0232 13.6602 19.0231 13.6603C18.7235 13.9603 18.2382 13.9604 17.9378 13.66C17.9373 13.6595 17.9367 13.6591 17.9362 13.6585L16.6319 12.3542C16.3129 12.0352 15.7957 12.0353 15.4767 12.3542C15.1578 12.6732 15.1578 13.1904 15.4767 13.5094L16.7827 14.8153C16.7829 14.8156 16.7832 14.8158 16.7835 14.816C17.0826 15.116 17.0834 15.6008 16.7824 15.9011C16.4828 16.2011 15.9974 16.2012 15.697 15.9009C15.6966 15.9005 15.6962 15.9002 15.6959 15.8999L14.391 14.595C14.0721 14.276 13.5549 14.276 13.2359 14.595C12.9169 14.914 12.9169 15.4312 13.2359 15.7502L14.5418 17.0561C14.542 17.0563 14.5421 17.0564 14.5423 17.0566C14.8405 17.3555 14.8438 17.8403 14.541 18.1425C14.3616 18.3224 14.1041 18.4009 13.8523 18.3526C13.5779 18.3 13.4806 18.1663 13.1546 17.8403L8.23498 12.9213C8.0994 12.7857 8.01551 12.6058 7.99881 12.4148L7.72661 9.30223C8.06797 8.96081 9.63862 7.3898 10.1836 6.84504L13.2962 7.11776C13.4871 7.13446 13.6668 7.21824 13.8022 7.35357C14.9977 8.54859 18.7155 12.2665 19.0231 12.5742C19.3225 12.8737 19.3226 13.3609 19.0234 13.66ZM20.0953 11.3359C19.8396 11.0801 17.0377 8.2782 15.7825 7.02327L17.816 6.8451C18.3968 7.42552 20.1013 9.13051 20.2731 9.30228L20.0953 11.3359ZM23.0978 9.81638C22.3327 9.05132 17.5852 4.30376 17.4162 4.13479L19.5789 1.97208L25.2605 7.65358L23.0978 9.81638Z" fill="#C4C4C4"/>
</svg>
