<svg width="20" height="20" viewBox="0 0 20 20" fill="none" xmlns="http://www.w3.org/2000/svg">
<path fill-rule="evenodd" clip-rule="evenodd" d="M8.33325 1.66675C7.67021 1.66675 7.03433 1.93014 6.56549 2.39898C6.09664 2.86782 5.83325 3.50371 5.83325 4.16675V5.00008H3.33325C1.95254 5.00008 0.833252 6.11937 0.833252 7.50008V15.8334C0.833252 17.2141 1.95254 18.3334 3.33325 18.3334H16.6666C18.0473 18.3334 19.1666 17.2141 19.1666 15.8334V7.50008C19.1666 6.11937 18.0473 5.00008 16.6666 5.00008H14.1666V4.16675C14.1666 3.50371 13.9032 2.86782 13.4344 2.39898C12.9655 1.93014 12.3296 1.66675 11.6666 1.66675H8.33325ZM12.4999 5.00008V4.16675C12.4999 3.94573 12.4121 3.73377 12.2558 3.57749C12.0996 3.42121 11.8876 3.33341 11.6666 3.33341H8.33325C8.11224 3.33341 7.90028 3.42121 7.744 3.57749C7.58772 3.73377 7.49992 3.94573 7.49992 4.16675V5.00008H12.4999ZM7.49992 6.66675H12.4999V16.6667H7.49992V6.66675ZM5.83325 6.66675H3.33325C2.87301 6.66675 2.49992 7.03984 2.49992 7.50008V15.8334C2.49992 16.2937 2.87301 16.6667 3.33325 16.6667H5.83325V6.66675ZM14.1666 16.6667V6.66675H16.6666C17.1268 6.66675 17.4999 7.03984 17.4999 7.50008V15.8334C17.4999 16.2937 17.1268 16.6667 16.6666 16.6667H14.1666Z" fill="#389FFF"/>
</svg>
